<?xml version="1.0" encoding="utf-8"?>
<!-- Generator: Adobe Illustrator 16.0.0, SVG Export Plug-In . SVG Version: 6.00 Build 0)  -->
<!DOCTYPE svg PUBLIC "-//W3C//DTD SVG 1.1//EN" "http://www.w3.org/Graphics/SVG/1.1/DTD/svg11.dtd">
<svg version="1.1" id="Layer_1" xmlns="http://www.w3.org/2000/svg" xmlns:xlink="http://www.w3.org/1999/xlink" x="0px" y="0px"
	 width="512px" height="512px" viewBox="0 0 512 512" enable-background="new 0 0 512 512" xml:space="preserve">
<g>
	<g>
		<g>
			<path fill="#F94646" d="M7.919,256.001c0-137.021,111.073-248.082,248.079-248.082c137.014,0,248.082,111.061,248.082,248.082
				c0,137.004-111.068,248.08-248.082,248.08C118.993,504.081,7.919,393.005,7.919,256.001z"/>
		</g>
	</g>
	<g>
		<g>
			<g>
				<path fill="#E9C29C" d="M218.125,135.185c35.112,28.994,40.063,80.949,11.071,116.057
					c-29.001,35.107-80.955,40.064-116.063,11.064c-35.105-28.994-40.06-80.947-11.063-116.057
					C131.066,111.142,183.021,106.19,218.125,135.185z"/>
			</g>
		</g>
		<g>
			<g>
				<path fill="#A46434" d="M218.125,135.185l-33.75,5.424c0,0,7.666,21.85-1.533,55.666c-8.87,32.588-69.708,66.031-69.708,66.031
					c-35.105-28.994-40.06-80.947-11.063-116.057C131.066,111.142,183.021,106.19,218.125,135.185z"/>
			</g>
		</g>
		<g>
			<g>
				<path fill="#343433" d="M221.884,168.188c5.08,4.191,5.976,11.498,2.005,16.311c-3.971,4.803-11.307,5.301-16.387,1.109
					c-5.08-4.201-5.982-11.5-2.012-16.309C209.46,164.491,216.808,163.993,221.884,168.188z"/>
			</g>
		</g>
		<g>
			<g>
				<path fill="#FFFFFF" d="M216.332,167.813c2.026,1.68,2.39,4.598,0.794,6.525c-1.58,1.912-4.517,2.115-6.545,0.436
					c-2.031-1.676-2.395-4.596-0.808-6.518C211.361,166.337,214.295,166.138,216.332,167.813z"/>
			</g>
		</g>
	</g>
	<g>
		<g>
			<g>
				<path fill="#7FCDCC" d="M175.148,337.425c6.052-29.592,0.987-36.455-12.899-41.217l-49.752-17.063
					c-13.889-4.762-24.78,2.576-37.387,23.973c-7.307,12.404-22.905,47.857-34.737,75.496
					c22.451,39.393,55.352,72.035,94.971,94.137c3.457-4.988,6.48-10.822,8.72-17.357
					C144.063,455.394,169.104,367.015,175.148,337.425z"/>
			</g>
			<g>
				<path fill="#EA8B86" d="M471.758,378.384c-11.986-28.084-28.682-66.221-36.316-79.182
					c-12.609-21.396-23.496-28.734-37.381-23.971l-49.76,17.059c-13.885,4.764-18.951,11.625-12.895,41.219
					c6.049,29.59,31.084,117.971,31.084,117.971c2.764,8.063,6.721,15.033,11.229,20.66
					C416.938,450.007,449.508,417.526,471.758,378.384z"/>
			</g>
		</g>
		<g>
			<g>
				<g>
					<path fill="#E9C29C" d="M287.033,136.942c-31.448,32.938-30.234,85.111,2.695,116.555
						c32.942,31.445,85.112,30.234,116.556-2.703c31.447-32.932,30.238-85.109-2.699-116.551
						C370.649,102.806,318.471,104.013,287.033,136.942z"/>
				</g>
			</g>
			<g>
				<g>
					<path fill="#EFEF86" d="M279.599,139.614l0.819,5.057l4.406-5.303c20.895,0.896,52.551,18.363,54.51,51.656
						c1.984,33.725,66.949,59.77,66.949,59.77c31.447-32.932,30.238-85.109-2.699-116.551
						C370.649,102.806,322.2,94.075,279.599,139.614z"/>
				</g>
			</g>
			<g>
				<g>
					<path fill="#F6F98C" d="M415.176,146.329c0,0,13.664,26.883,12.91,28.445c-32.26,67.164,7.34,117.223,7.34,117.223
						c1.799-25.115,8.977-49.98,17.182-63.898c15.566-26.396,18.164-60.5-6.584-79.65
						C432.938,138.321,415.176,146.329,415.176,146.329z"/>
				</g>
			</g>
			<g>
				<path fill="#DB8675" d="M412.688,142.673c0,0,4.232-0.322,4.557,2.764l-1.932,0.979c3.607,5.4,10.213,15.705,12.814,28.592
					c0,0-2.91-1.264-5.51-3.277c-4.873-3.766-13.594-17.795-13.953-22.484C408.305,144.507,412.688,142.673,412.688,142.673z"/>
			</g>
			<g>
				<g>
					<path fill="#343433" d="M286.362,169.901c-4.548,4.764-4.574,12.125-0.063,16.434c4.509,4.303,11.854,3.928,16.403-0.834
						c4.547-4.766,4.587-12.127,0.076-16.43C298.265,164.759,290.91,165.136,286.362,169.901z"/>
				</g>
			</g>
			<g>
				<g>
					<path fill="#FFFFFF" d="M291.84,168.876c-1.82,1.904-1.836,4.844-0.031,6.574c1.797,1.713,4.739,1.566,6.557-0.342
						c1.822-1.904,1.837-4.848,0.036-6.568C296.595,166.819,293.658,166.97,291.84,168.876z"/>
				</g>
			</g>
		</g>
	</g>
	<g>
		<path fill="#EFEF86" d="M337.696,176.151c0,0,10.127,61.111-11.238,92.381c0,0,50.539-15.068,46.922-77.008
			C371.168,153.696,337.696,176.151,337.696,176.151z"/>
	</g>
</g>
</svg>
